<svg width="220" height="49" viewBox="0 0 220 49" fill="none" xmlns="http://www.w3.org/2000/svg">
<path d="M50.36 39V10.2H62.52C64.5733 10.2 66.36 10.5467 67.88 11.24C69.4 11.9333 70.56 12.9067 71.36 14.16C72.1867 15.4133 72.6 16.88 72.6 18.56C72.6 20.2133 72.1867 21.6667 71.36 22.92C70.56 24.1733 69.4 25.1467 67.88 25.84C66.36 26.5333 64.5733 26.88 62.52 26.88H54.44V22.92H62.36C64.04 22.92 65.32 22.5333 66.2 21.76C67.1067 20.9867 67.56 19.92 67.56 18.56C67.56 17.2 67.12 16.16 66.24 15.44C65.36 14.6933 64.0667 14.32 62.36 14.32H55.56V39H50.36ZM66.84 39L54 24.28H59.84L74.04 39H66.84ZM85.3116 39.4C83.1516 39.4 81.2449 38.9467 79.5916 38.04C77.9649 37.1333 76.6982 35.88 75.7916 34.28C74.8849 32.6533 74.4316 30.8 74.4316 28.72C74.4316 26.64 74.8849 24.8133 75.7916 23.24C76.6982 21.6667 77.9649 20.44 79.5916 19.56C81.2449 18.6533 83.1516 18.2 85.3116 18.2C87.4982 18.2 89.4049 18.6533 91.0316 19.56C92.6582 20.44 93.9249 21.6667 94.8316 23.24C95.7382 24.8133 96.1916 26.64 96.1916 28.72C96.1916 30.8 95.7249 32.6533 94.7916 34.28C93.8849 35.88 92.6182 37.1333 90.9916 38.04C89.3649 38.9467 87.4716 39.4 85.3116 39.4ZM85.3116 35.36C86.3782 35.36 87.3382 35.0933 88.1916 34.56C89.0449 34 89.7116 33.2267 90.1916 32.24C90.6716 31.2267 90.9116 30.04 90.9116 28.68C90.9116 26.68 90.3782 25.1067 89.3116 23.96C88.2716 22.8133 86.9382 22.24 85.3116 22.24C83.6849 22.24 82.3382 22.8133 81.2716 23.96C80.2049 25.1067 79.6716 26.68 79.6716 28.68C79.6716 30.04 79.9116 31.2267 80.3916 32.24C80.8982 33.2267 81.5649 34 82.3916 34.56C83.2449 35.0933 84.2182 35.36 85.3116 35.36ZM109.179 39.4C107.019 39.4 105.112 38.9467 103.459 38.04C101.832 37.1333 100.565 35.88 99.6588 34.28C98.7521 32.6533 98.2988 30.8 98.2988 28.72C98.2988 26.64 98.7521 24.8133 99.6588 23.24C100.565 21.6667 101.832 20.44 103.459 19.56C105.112 18.6533 107.019 18.2 109.179 18.2C111.365 18.2 113.272 18.6533 114.899 19.56C116.525 20.44 117.792 21.6667 118.699 23.24C119.605 24.8133 120.059 26.64 120.059 28.72C120.059 30.8 119.592 32.6533 118.659 34.28C117.752 35.88 116.485 37.1333 114.859 38.04C113.232 38.9467 111.339 39.4 109.179 39.4ZM109.179 35.36C110.245 35.36 111.205 35.0933 112.059 34.56C112.912 34 113.579 33.2267 114.059 32.24C114.539 31.2267 114.779 30.04 114.779 28.68C114.779 26.68 114.245 25.1067 113.179 23.96C112.139 22.8133 110.805 22.24 109.179 22.24C107.552 22.24 106.205 22.8133 105.139 23.96C104.072 25.1067 103.539 26.68 103.539 28.68C103.539 30.04 103.779 31.2267 104.259 32.24C104.765 33.2267 105.432 34 106.259 34.56C107.112 35.0933 108.085 35.36 109.179 35.36ZM123.766 39V18.6H128.686V23.4H128.806V39H123.766ZM137.486 39V25.84C137.486 24.64 137.179 23.76 136.566 23.2C135.979 22.6133 135.139 22.32 134.046 22.32C133.086 22.32 132.206 22.5467 131.406 23C130.606 23.4533 129.966 24.0933 129.486 24.92C129.033 25.7467 128.806 26.7067 128.806 27.8L128.286 23.12C128.979 21.6267 129.979 20.44 131.286 19.56C132.593 18.6533 134.113 18.2 135.846 18.2C137.926 18.2 139.566 18.8 140.766 20C141.966 21.1733 142.566 22.6933 142.566 24.56V39H137.486ZM151.206 39V25.84C151.206 24.64 150.913 23.76 150.326 23.2C149.739 22.6133 148.899 22.32 147.806 22.32C146.819 22.32 145.926 22.5467 145.126 23C144.326 23.4533 143.699 24.0933 143.246 24.92C142.793 25.7467 142.566 26.7067 142.566 27.8L141.686 23.12C142.353 21.6267 143.366 20.44 144.726 19.56C146.086 18.6533 147.659 18.2 149.446 18.2C151.579 18.2 153.246 18.8133 154.446 20.04C155.673 21.24 156.286 22.84 156.286 24.84V39H151.206ZM170.702 39.4C168.542 39.4 166.636 38.9467 164.982 38.04C163.356 37.1333 162.089 35.88 161.182 34.28C160.276 32.6533 159.822 30.8 159.822 28.72C159.822 26.64 160.276 24.8133 161.182 23.24C162.089 21.6667 163.356 20.44 164.982 19.56C166.636 18.6533 168.542 18.2 170.702 18.2C172.889 18.2 174.796 18.6533 176.422 19.56C178.049 20.44 179.316 21.6667 180.222 23.24C181.129 24.8133 181.582 26.64 181.582 28.72C181.582 30.8 181.116 32.6533 180.182 34.28C179.276 35.88 178.009 37.1333 176.382 38.04C174.756 38.9467 172.862 39.4 170.702 39.4ZM170.702 35.36C171.769 35.36 172.729 35.0933 173.582 34.56C174.436 34 175.102 33.2267 175.582 32.24C176.062 31.2267 176.302 30.04 176.302 28.68C176.302 26.68 175.769 25.1067 174.702 23.96C173.662 22.8133 172.329 22.24 170.702 22.24C169.076 22.24 167.729 22.8133 166.662 23.96C165.596 25.1067 165.062 26.68 165.062 28.68C165.062 30.04 165.302 31.2267 165.782 32.24C166.289 33.2267 166.956 34 167.782 34.56C168.636 35.0933 169.609 35.36 170.702 35.36ZM185.289 39V18.6H190.209V23.52H190.329V39H185.289ZM190.329 28.36L189.809 23.52C190.289 21.7867 191.103 20.4667 192.249 19.56C193.396 18.6533 194.769 18.2 196.369 18.2C196.929 18.2 197.329 18.2533 197.569 18.36V23.12C197.436 23.0667 197.249 23.04 197.009 23.04C196.769 23.0133 196.476 23 196.129 23C194.183 23 192.729 23.4267 191.769 24.28C190.809 25.1333 190.329 26.4933 190.329 28.36ZM212.892 39C212.759 38.4667 212.652 37.88 212.572 37.24C212.519 36.6 212.492 35.8267 212.492 34.92H212.332V25.24C212.332 24.1733 212.026 23.3733 211.412 22.84C210.826 22.28 209.919 22 208.692 22C207.492 22 206.532 22.2267 205.812 22.68C205.119 23.1067 204.692 23.7333 204.532 24.56H199.692C199.906 22.6667 200.812 21.1333 202.412 19.96C204.012 18.7867 206.159 18.2 208.852 18.2C211.652 18.2 213.772 18.84 215.212 20.12C216.652 21.3733 217.372 23.2267 217.372 25.68V34.92C217.372 35.56 217.412 36.2133 217.492 36.88C217.599 37.5467 217.746 38.2533 217.932 39H212.892ZM205.812 39.4C203.759 39.4 202.119 38.8933 200.892 37.88C199.692 36.84 199.092 35.4533 199.092 33.72C199.092 31.8533 199.772 30.3733 201.132 29.28C202.492 28.1867 204.412 27.4533 206.892 27.08L213.252 26.12V29.32L207.732 30.16C206.532 30.3467 205.626 30.68 205.012 31.16C204.426 31.64 204.132 32.3067 204.132 33.16C204.132 33.9333 204.412 34.5333 204.972 34.96C205.532 35.36 206.306 35.56 207.292 35.56C208.732 35.56 209.932 35.2 210.892 34.48C211.852 33.76 212.332 32.88 212.332 31.84L212.892 34.92C212.359 36.3867 211.479 37.5067 210.252 38.28C209.052 39.0267 207.572 39.4 205.812 39.4Z" fill="black"/>
<path fill-rule="evenodd" clip-rule="evenodd" d="M8.75 10.75H5C4.31 10.75 3.75 11.31 3.75 12V38.6667C3.75 39.3567 4.31 39.9167 5 39.9167H9.03C8.85 39.5383 8.75 39.1133 8.75 38.6667V10.75Z" fill="black"/>
<path fill-rule="evenodd" clip-rule="evenodd" d="M31.2487 10.75V38.6667C31.2487 39.1133 31.1488 39.5383 30.9688 39.9167H34.9987C35.6887 39.9167 36.2487 39.3567 36.2487 38.6667V12C36.2487 11.31 35.6887 10.75 34.9987 10.75H31.2487Z" fill="black"/>
<path fill-rule="evenodd" clip-rule="evenodd" d="M29.5807 5.33337C29.5807 4.64337 29.0207 4.08337 28.3307 4.08337H11.6641C10.9741 4.08337 10.4141 4.64337 10.4141 5.33337V38.6667C10.4141 39.3567 10.9741 39.9167 11.6641 39.9167H28.3307C29.0207 39.9167 29.5807 39.3567 29.5807 38.6667V5.33337ZM23.3307 30.3334C23.3307 29.8917 23.1557 29.4667 22.8424 29.155C22.5307 28.8417 22.1057 28.6667 21.6641 28.6667C20.6457 28.6667 19.3491 28.6667 18.3307 28.6667C17.8891 28.6667 17.4641 28.8417 17.1524 29.155C16.8391 29.4667 16.6641 29.8917 16.6641 30.3334V37C16.6641 37.4417 16.8391 37.8667 17.1524 38.1784C17.4641 38.4917 17.8891 38.6667 18.3307 38.6667H21.6641C22.1057 38.6667 22.5307 38.4917 22.8424 38.1784C23.1557 37.8667 23.3307 37.4417 23.3307 37C23.3307 35.15 23.3307 32.1834 23.3307 30.3334ZM15.8307 23.25H17.4974C18.1874 23.25 18.7474 22.69 18.7474 22C18.7474 21.31 18.1874 20.75 17.4974 20.75H15.8307C15.1407 20.75 14.5807 21.31 14.5807 22C14.5807 22.69 15.1407 23.25 15.8307 23.25ZM22.4974 23.25H24.1641C24.8541 23.25 25.4141 22.69 25.4141 22C25.4141 21.31 24.8541 20.75 24.1641 20.75H22.4974C21.8074 20.75 21.2474 21.31 21.2474 22C21.2474 22.69 21.8074 23.25 22.4974 23.25ZM15.8307 18.25H17.4974C18.1874 18.25 18.7474 17.69 18.7474 17C18.7474 16.31 18.1874 15.75 17.4974 15.75H15.8307C15.1407 15.75 14.5807 16.31 14.5807 17C14.5807 17.69 15.1407 18.25 15.8307 18.25ZM22.4974 18.25H24.1641C24.8541 18.25 25.4141 17.69 25.4141 17C25.4141 16.31 24.8541 15.75 24.1641 15.75H22.4974C21.8074 15.75 21.2474 16.31 21.2474 17C21.2474 17.69 21.8074 18.25 22.4974 18.25ZM15.8307 13.25H17.4974C18.1874 13.25 18.7474 12.69 18.7474 12C18.7474 11.31 18.1874 10.75 17.4974 10.75H15.8307C15.1407 10.75 14.5807 11.31 14.5807 12C14.5807 12.69 15.1407 13.25 15.8307 13.25ZM22.4974 13.25H24.1641C24.8541 13.25 25.4141 12.69 25.4141 12C25.4141 11.31 24.8541 10.75 24.1641 10.75H22.4974C21.8074 10.75 21.2474 11.31 21.2474 12C21.2474 12.69 21.8074 13.25 22.4974 13.25Z" fill="black"/>
<path fill-rule="evenodd" clip-rule="evenodd" d="M3.33203 39.9167H36.6654C37.3554 39.9167 37.9154 39.3567 37.9154 38.6667C37.9154 37.9767 37.3554 37.4167 36.6654 37.4167H3.33203C2.64203 37.4167 2.08203 37.9767 2.08203 38.6667C2.08203 39.3567 2.64203 39.9167 3.33203 39.9167Z" fill="black"/>
</svg>
